<svg width="24" height="24" viewBox="0 0 24 24" fill="none" xmlns="http://www.w3.org/2000/svg">
<g clip-path="url(#clip0_861_2761)">
<path fill-rule="evenodd" clip-rule="evenodd" d="M15 4.00006C15 3.44778 15.4477 3.00006 16 3.00006H20C20.5523 3.00006 21 3.44778 21 4.00006V8.00006C21 8.55235 20.5523 9.00006 20 9.00006C19.4477 9.00006 19 8.55235 19 8.00006V6.41427L14.7071 10.7072C14.3166 11.0977 13.6834 11.0977 13.2929 10.7072C12.9024 10.3166 12.9024 9.68348 13.2929 9.29295L17.5858 5.00006H16C15.4477 5.00006 15 4.55235 15 4.00006Z" fill="black"/>
<path fill-rule="evenodd" clip-rule="evenodd" d="M10.7071 13.293C11.0976 13.6835 11.0976 14.3166 10.7071 14.7072L6.41421 19.0001H8C8.55228 19.0001 9 19.4478 9 20.0001C9 20.5523 8.55228 21.0001 8 21.0001H4C3.44772 21.0001 3 20.5523 3 20.0001V16.0001C3 15.4478 3.44772 15.0001 4 15.0001C4.55228 15.0001 5 15.4478 5 16.0001V17.5858L9.29289 13.293C9.68342 12.9024 10.3166 12.9024 10.7071 13.293Z" fill="black"/>
</g>
<defs>
<clipPath id="clip0_861_2761">
<rect width="24" height="24" fill="white"/>
</clipPath>
</defs>
</svg>
