<svg width="24" height="24" viewBox="0 0 24 24" fill="none" xmlns="http://www.w3.org/2000/svg">
<g clip-path="url(#clip0_855_2283)">
<path fill-rule="evenodd" clip-rule="evenodd" d="M4 3.00006C4.55228 3.00006 5 3.44778 5 4.00006V4.01006C5 4.56235 4.55228 5.01006 4 5.01006C3.44772 5.01006 3 4.56235 3 4.01006V4.00006C3 3.44778 3.44772 3.00006 4 3.00006ZM7 5.00006C7 3.89549 7.89543 3.00006 9 3.00006H15C16.1046 3.00006 17 3.89549 17 5.00006V19.0001C17 20.1046 16.1046 21.0001 15 21.0001H9C7.89543 21.0001 7 20.1046 7 19.0001V5.00006ZM15 5.00006H9V19.0001H15V5.00006ZM20 3.00006C20.5523 3.00006 21 3.44778 21 4.00006V4.01006C21 4.56235 20.5523 5.01006 20 5.01006C19.4477 5.01006 19 4.56235 19 4.01006V4.00006C19 3.44778 19.4477 3.00006 20 3.00006ZM4 7.00006C4.55228 7.00006 5 7.44778 5 8.00006V8.01006C5 8.56235 4.55228 9.01006 4 9.01006C3.44772 9.01006 3 8.56235 3 8.01006V8.00006C3 7.44778 3.44772 7.00006 4 7.00006ZM20 7.00006C20.5523 7.00006 21 7.44778 21 8.00006V8.01006C21 8.56235 20.5523 9.01006 20 9.01006C19.4477 9.01006 19 8.56235 19 8.01006V8.00006C19 7.44778 19.4477 7.00006 20 7.00006ZM4 11.0001C4.55228 11.0001 5 11.4478 5 12.0001V12.0101C5 12.5623 4.55228 13.0101 4 13.0101C3.44772 13.0101 3 12.5623 3 12.0101V12.0001C3 11.4478 3.44772 11.0001 4 11.0001ZM20 11.0001C20.5523 11.0001 21 11.4478 21 12.0001V12.0101C21 12.5623 20.5523 13.0101 20 13.0101C19.4477 13.0101 19 12.5623 19 12.0101V12.0001C19 11.4478 19.4477 11.0001 20 11.0001ZM4 15.0001C4.55228 15.0001 5 15.4478 5 16.0001V16.0101C5 16.5623 4.55228 17.0101 4 17.0101C3.44772 17.0101 3 16.5623 3 16.0101V16.0001C3 15.4478 3.44772 15.0001 4 15.0001ZM20 15.0001C20.5523 15.0001 21 15.4478 21 16.0001V16.0101C21 16.5623 20.5523 17.0101 20 17.0101C19.4477 17.0101 19 16.5623 19 16.0101V16.0001C19 15.4478 19.4477 15.0001 20 15.0001ZM4 19.0001C4.55228 19.0001 5 19.4478 5 20.0001V20.0101C5 20.5623 4.55228 21.0101 4 21.0101C3.44772 21.0101 3 20.5623 3 20.0101V20.0001C3 19.4478 3.44772 19.0001 4 19.0001ZM20 19.0001C20.5523 19.0001 21 19.4478 21 20.0001V20.0101C21 20.5623 20.5523 21.0101 20 21.0101C19.4477 21.0101 19 20.5623 19 20.0101V20.0001C19 19.4478 19.4477 19.0001 20 19.0001Z" fill="black"/>
</g>
<defs>
<clipPath id="clip0_855_2283">
<rect width="24" height="24" fill="white"/>
</clipPath>
</defs>
</svg>
