<svg width="24" height="24" viewBox="0 0 24 24" fill="none" xmlns="http://www.w3.org/2000/svg">
<g clip-path="url(#clip0_1057_1444)">
<path fill-rule="evenodd" clip-rule="evenodd" d="M3.87868 3.87874C4.44129 3.31613 5.20435 3.00006 6 3.00006H14C14.7956 3.00006 15.5587 3.31613 16.1213 3.87874C16.6839 4.44135 17 5.20441 17 6.00006V7.00006H18C19.6569 7.00006 21 8.34321 21 10.0001V18.0001C21 19.6569 19.6569 21.0001 18 21.0001H10C8.34315 21.0001 7 19.6569 7 18.0001V17.0001H6C5.20435 17.0001 4.44129 16.684 3.87868 16.1214C3.31607 15.5588 3 14.7957 3 14.0001V6.00006C3 5.20441 3.31607 4.44135 3.87868 3.87874ZM9 18.0001C9 18.5523 9.44772 19.0001 10 19.0001H18C18.5523 19.0001 19 18.5523 19 18.0001V10.0001C19 9.44778 18.5523 9.00006 18 9.00006H10C9.44772 9.00006 9 9.44778 9 10.0001V18.0001ZM15 7.00006H10C8.34315 7.00006 7 8.34321 7 10.0001V15.0001H6C5.73478 15.0001 5.48043 14.8947 5.29289 14.7072C5.10536 14.5196 5 14.2653 5 14.0001V6.00006C5 5.73484 5.10536 5.48049 5.29289 5.29295C5.48043 5.10542 5.73478 5.00006 6 5.00006H14C14.2652 5.00006 14.5196 5.10542 14.7071 5.29295C14.8946 5.48049 15 5.73484 15 6.00006V7.00006Z" fill="black"/>
</g>
<defs>
<clipPath id="clip0_1057_1444">
<rect width="24" height="24" fill="white"/>
</clipPath>
</defs>
</svg>
