<svg width="24" height="24" viewBox="0 0 24 24" fill="none" xmlns="http://www.w3.org/2000/svg">
<g clip-path="url(#clip0_857_2298)">
<path fill-rule="evenodd" clip-rule="evenodd" d="M13.2248 6.41819C12.8743 6.14699 12.4436 5.99991 12.0003 6.00006H12C11.5568 6.00006 11.1262 6.14724 10.7758 6.41849C10.4253 6.68975 10.1749 7.06971 10.0638 7.49872C9.95275 7.92773 9.9873 8.38148 10.1621 8.78873C10.3368 9.19598 10.6419 9.53365 11.0293 9.74873C11.2613 9.8775 11.4326 10.0932 11.5055 10.3483C11.5784 10.6034 11.5469 10.8771 11.418 11.109L9.33102 14.863C9.06272 15.3456 8.45402 15.5194 7.97134 15.2512C7.58773 15.0381 7.14466 14.957 6.71045 15.0206C6.27623 15.0841 5.87496 15.2887 5.56849 15.6028C5.26203 15.9169 5.06738 16.3231 5.01455 16.7587C4.96172 17.1944 5.05365 17.6353 5.27615 18.0136C5.49866 18.3918 5.8394 18.6864 6.24585 18.8519C6.6523 19.0173 7.10189 19.0445 7.52532 18.9293C7.94876 18.814 8.32252 18.5627 8.58902 18.214C8.8555 17.8653 8.99992 17.4387 9.00001 16.9999C9.00011 16.4477 9.44779 16.0001 10 16.0001H14C14.5391 16.0001 14.9812 16.4274 14.9994 16.9662L15.005 17.1292C15.0328 17.5581 15.1981 17.9668 15.4765 18.2945C15.7573 18.6251 16.1381 18.8554 16.5613 18.9507C16.9844 19.0461 17.4271 19.0012 17.8226 18.823C18.2181 18.6447 18.5449 18.3427 18.7537 17.9625C18.9626 17.5823 19.0421 17.1445 18.9804 16.7151C18.9187 16.2858 18.7191 15.8881 18.4116 15.5821C18.1042 15.2761 17.7055 15.0783 17.2759 15.0186C16.8462 14.959 16.4088 15.0406 16.0296 15.2513C15.5469 15.5194 14.9383 15.3455 14.67 14.863L12.583 11.109C12.4541 10.8771 12.4226 10.6034 12.4955 10.3483C12.5684 10.0932 12.7397 9.8775 12.9717 9.74873C13.3592 9.53362 13.6643 9.19589 13.839 8.78858C14.0138 8.38127 14.0483 7.92745 13.9371 7.4984C13.8259 7.06935 13.5754 6.68939 13.2248 6.41819ZM12 4.00006C12.8863 3.99984 13.7476 4.29398 14.4486 4.83632C15.1497 5.37872 15.6508 6.13865 15.8732 6.99674C16.0955 7.85483 16.0265 8.76247 15.677 9.5771C15.4615 10.0795 15.1468 10.529 14.7555 10.9006L15.994 13.1284C16.4989 12.9971 17.0278 12.965 17.551 13.0377C18.4103 13.157 19.2076 13.5525 19.8225 14.1645C20.4374 14.7765 20.8367 15.5719 20.9601 16.4306C21.0835 17.2894 20.9244 18.165 20.5067 18.9254C20.089 19.6858 19.4354 20.2898 18.6445 20.6463C17.8535 21.0028 16.9681 21.0925 16.1218 20.9019C15.2754 20.7112 14.5139 20.2506 13.9523 19.5894C13.5588 19.1261 13.2782 18.5821 13.1279 18.0001H10.8728C10.7399 18.5146 10.5049 19.0009 10.178 19.4285C9.64504 20.1259 8.8975 20.6285 8.05064 20.859C7.20377 21.0896 6.30459 21.0352 5.49169 20.7042C4.6788 20.3733 3.99732 19.7841 3.5523 19.0276C3.10729 18.2711 2.92344 17.3893 3.02909 16.518C3.13475 15.6467 3.52405 14.8343 4.13698 14.2061C4.74991 13.5779 5.55245 13.1687 6.42089 13.0416C6.95347 12.9637 7.4927 12.9945 8.00707 13.1283L9.24556 10.9006C8.85428 10.529 8.53965 10.0797 8.32412 9.5774C7.97461 8.76291 7.90552 7.8554 8.12769 6.99738C8.34986 6.13937 8.85072 5.37944 9.5516 4.83693C10.2524 4.29449 11.1135 4.00013 11.9997 4.00006M12 7.00006C12.5523 7.00006 13 7.44778 13 8.00006V8.01006C13 8.56235 12.5523 9.01006 12 9.01006C11.4477 9.01006 11 8.56235 11 8.01006V8.00006C11 7.44778 11.4477 7.00006 12 7.00006ZM7.00001 16.0001C7.55229 16.0001 8.00001 16.4478 8.00001 17.0001V17.0101C8.00001 17.5623 7.55229 18.0101 7.00001 18.0101C6.44772 18.0101 6.00001 17.5623 6.00001 17.0101V17.0001C6.00001 16.4478 6.44772 16.0001 7.00001 16.0001ZM17 16.0001C17.5523 16.0001 18 16.4478 18 17.0001V17.0101C18 17.5623 17.5523 18.0101 17 18.0101C16.4477 18.0101 16 17.5623 16 17.0101V17.0001C16 16.4478 16.4477 16.0001 17 16.0001Z" fill="black"/>
</g>
<defs>
<clipPath id="clip0_857_2298">
<rect width="24" height="24" fill="white"/>
</clipPath>
</defs>
</svg>
