<svg width="24" height="24" viewBox="0 0 24 24" fill="none" xmlns="http://www.w3.org/2000/svg">
<g clip-path="url(#clip0_861_2840)">
<path fill-rule="evenodd" clip-rule="evenodd" d="M6 5.00006C5.44772 5.00006 5 5.44778 5 6.00006V18.0001C5 18.5523 5.44772 19.0001 6 19.0001H14V5.00006H6ZM6 3.00006C4.34315 3.00006 3 4.34321 3 6.00006V18.0001C3 19.6569 4.34315 21.0001 6 21.0001H18C19.6569 21.0001 21 19.6569 21 18.0001V6.00006C21 4.34321 19.6569 3.00006 18 3.00006H6ZM16 5.00006V19.0001H18C18.5523 19.0001 19 18.5523 19 18.0001V6.00006C19 5.44778 18.5523 5.00006 18 5.00006H16ZM10.7071 9.29295C11.0976 9.68348 11.0976 10.3166 10.7071 10.7072L9.41421 12.0001L10.7071 13.293C11.0976 13.6835 11.0976 14.3166 10.7071 14.7072C10.3166 15.0977 9.68342 15.0977 9.29289 14.7072L7.29289 12.7072C6.90237 12.3166 6.90237 11.6835 7.29289 11.293L9.29289 9.29295C9.68342 8.90243 10.3166 8.90243 10.7071 9.29295Z" fill="black"/>
</g>
<defs>
<clipPath id="clip0_861_2840">
<rect width="24" height="24" fill="white"/>
</clipPath>
</defs>
</svg>
