<svg width="24" height="24" viewBox="0 0 24 24" fill="none" xmlns="http://www.w3.org/2000/svg">
<g clip-path="url(#clip0_861_1489)">
<path fill-rule="evenodd" clip-rule="evenodd" d="M6 5.00006C5.44772 5.00006 5 5.44778 5 6.00006V18.0001C5 18.5523 5.44772 19.0001 6 19.0001H8V5.00006H6ZM6 3.00006C4.34315 3.00006 3 4.34321 3 6.00006V18.0001C3 19.6569 4.34315 21.0001 6 21.0001H18C19.6569 21.0001 21 19.6569 21 18.0001V6.00006C21 4.34321 19.6569 3.00006 18 3.00006H6ZM10 5.00006V19.0001H18C18.5523 19.0001 19 18.5523 19 18.0001V6.00006C19 5.44778 18.5523 5.00006 18 5.00006H10ZM13.2929 9.29295C13.6834 8.90243 14.3166 8.90243 14.7071 9.29295L16.7071 11.293C17.0976 11.6835 17.0976 12.3166 16.7071 12.7072L14.7071 14.7072C14.3166 15.0977 13.6834 15.0977 13.2929 14.7072C12.9024 14.3166 12.9024 13.6835 13.2929 13.293L14.5858 12.0001L13.2929 10.7072C12.9024 10.3166 12.9024 9.68348 13.2929 9.29295Z" fill="black"/>
</g>
<defs>
<clipPath id="clip0_861_1489">
<rect width="24" height="24" fill="white"/>
</clipPath>
</defs>
</svg>
