<svg width="24" height="24" viewBox="0 0 24 24" fill="none" xmlns="http://www.w3.org/2000/svg">
<g clip-path="url(#clip0_853_2244)">
<path fill-rule="evenodd" clip-rule="evenodd" d="M12.3836 4.98637C10.4155 4.90657 8.4945 5.46624 6.97841 6.54182C5.46443 7.61591 4.46819 9.12125 4.13636 10.7606C3.80514 12.397 4.15003 14.0928 5.12843 15.5398C5.30256 15.7974 5.34701 16.1212 5.2487 16.4162L4.50139 18.6581L7.49191 18.0218C7.70961 17.9755 7.93653 18.0032 8.13675 18.1004C9.8509 18.9325 11.8576 19.1867 13.7775 18.8064C15.6971 18.4261 17.3708 17.4437 18.5022 16.071C19.6306 14.7021 20.1469 13.0366 19.9848 11.3824C19.8227 9.72669 18.9875 8.15389 17.5964 6.96735C16.2027 5.7786 14.3517 5.06617 12.3836 4.98637ZM5.82116 4.91063C7.71448 3.56742 10.0751 2.89113 12.4646 2.98801C14.8542 3.0849 17.1404 3.94977 18.8942 5.44568C20.6506 6.94378 21.7591 8.9803 21.9753 11.1874C22.1917 13.3962 21.4953 15.5843 20.0455 17.3431C18.5988 19.0983 16.5042 20.305 14.1661 20.7682C11.9447 21.2083 9.62136 20.9545 7.58162 20.0475L3.20813 20.9781C2.85732 21.0527 2.49341 20.9338 2.25441 20.6663C2.0154 20.3989 1.93792 20.024 2.05133 19.6837L3.20113 16.2343C2.13814 14.4499 1.76779 12.3812 2.17611 10.3639C2.61673 8.18704 3.92573 6.25534 5.82116 4.91063ZM8.00002 11C8.5523 11 9.00002 11.4477 9.00002 12V12.01C9.00002 12.5622 8.5523 13.01 8.00002 13.01C7.44773 13.01 7.00002 12.5622 7.00002 12.01V12C7.00002 11.4477 7.44773 11 8.00002 11ZM12 11C12.5523 11 13 11.4477 13 12V12.01C13 12.5622 12.5523 13.01 12 13.01C11.4477 13.01 11 12.5622 11 12.01V12C11 11.4477 11.4477 11 12 11ZM16 11C16.5523 11 17 11.4477 17 12V12.01C17 12.5622 16.5523 13.01 16 13.01C15.4477 13.01 15 12.5622 15 12.01V12C15 11.4477 15.4477 11 16 11Z" fill="black"/>
</g>
<defs>
<clipPath id="clip0_853_2244">
<rect width="24" height="24" fill="white"/>
</clipPath>
</defs>
</svg>
