<svg width="24" height="24" viewBox="0 0 24 24" fill="none" xmlns="http://www.w3.org/2000/svg">
<path fill-rule="evenodd" clip-rule="evenodd" d="M2 12C2 10.8954 2.93196 10 4.0816 10H4.09825C5.24789 10 6.17985 10.8954 6.17985 12C6.17985 13.1046 5.24789 14 4.09825 14H4.0816C2.93196 14 2 13.1046 2 12Z" fill="black"/>
<path fill-rule="evenodd" clip-rule="evenodd" d="M9.91007 12C9.91007 10.8954 10.842 10 11.9917 10H12.0083C13.158 10 14.0899 10.8954 14.0899 12C14.0899 13.1046 13.158 14 12.0083 14H11.9917C10.842 14 9.91007 13.1046 9.91007 12Z" fill="black"/>
<path fill-rule="evenodd" clip-rule="evenodd" d="M17.8201 12C17.8201 10.8954 18.7521 10 19.9017 10H19.9184C21.068 10 22 10.8954 22 12C22 13.1046 21.068 14 19.9184 14H19.9017C18.7521 14 17.8201 13.1046 17.8201 12Z" fill="black"/>
</svg>
