<svg width="24" height="24" viewBox="0 0 24 24" fill="none" xmlns="http://www.w3.org/2000/svg">
<path fill-rule="evenodd" clip-rule="evenodd" d="M12 4C12.4909 4 12.8889 4.39797 12.8889 4.88889V11.1111H19.1111C19.602 11.1111 20 11.5091 20 12C20 12.4909 19.602 12.8889 19.1111 12.8889H12.8889V19.1111C12.8889 19.602 12.4909 20 12 20C11.5091 20 11.1111 19.602 11.1111 19.1111V12.8889H4.88889C4.39797 12.8889 4 12.4909 4 12C4 11.5091 4.39797 11.1111 4.88889 11.1111H11.1111V4.88889C11.1111 4.39797 11.5091 4 12 4Z" fill="black"/>
</svg>
