<svg width="24" height="24" viewBox="0 0 24 24" fill="none" xmlns="http://www.w3.org/2000/svg">
<path fill-rule="evenodd" clip-rule="evenodd" d="M14.2 20.2L5 20.2C4.33726 20.2 3.8 19.6627 3.8 19L3.8 5C3.8 4.33726 4.33726 3.8 5 3.8L14.2 3.8L14.2 20.2ZM16 20.2L19 20.2C19.6627 20.2 20.2 19.6627 20.2 19L20.2 5C20.2 4.33726 19.6627 3.8 19 3.8L16 3.8L16 20.2ZM22 19C22 20.6569 20.6569 22 19 22L5 22C3.34315 22 2 20.6569 2 19L2 5C2 3.34315 3.34314 2 5 2L19 2C20.6569 2 22 3.34315 22 5L22 19Z" fill="black"/>
</svg>
