<svg width="24" height="24" viewBox="0 0 24 24" fill="none" xmlns="http://www.w3.org/2000/svg">
<path fill-rule="evenodd" clip-rule="evenodd" d="M10 4.00006C6.68629 4.00006 4 6.68635 4 10.0001C4 13.3138 6.68629 16.0001 10 16.0001C13.3137 16.0001 16 13.3138 16 10.0001C16 6.68635 13.3137 4.00006 10 4.00006ZM2 10.0001C2 5.58178 5.58172 2.00006 10 2.00006C14.4183 2.00006 18 5.58178 18 10.0001C18 11.8488 17.3729 13.551 16.3199 14.9057L21.7071 20.293C22.0976 20.6835 22.0976 21.3166 21.7071 21.7072C21.3166 22.0977 20.6834 22.0977 20.2929 21.7072L14.9056 16.3199C13.551 17.373 11.8487 18.0001 10 18.0001C5.58172 18.0001 2 14.4183 2 10.0001Z" fill="black"/>
</svg>
