<svg width="24" height="24" viewBox="0 0 24 24" fill="none" xmlns="http://www.w3.org/2000/svg">
<g clip-path="url(#clip0_857_2415)">
<path fill-rule="evenodd" clip-rule="evenodd" d="M5 6C4.31811 6 4 6.45704 4 6.75V17.25C4 17.543 4.31811 18 5 18H19C19.6819 18 20 17.543 20 17.25V6.75C20 6.45704 19.6819 6 19 6H5ZM2 6.75C2 5.10996 3.47275 4 5 4H19C20.5272 4 22 5.10996 22 6.75V17.25C22 18.89 20.5272 20 19 20H5C3.47275 20 2 18.89 2 17.25V6.75Z" fill="black"/>
<path d="M15.7779 17C15.3131 17 14.903 16.7539 14.6842 16.3164L10.911 8.76909C10.6102 8.1675 10.8563 7.42918 11.4578 7.12838C12.0594 6.82758 12.7976 7.07369 13.0984 7.67528L16.8716 15.2226C17.1724 15.8242 16.9263 16.5625 16.3248 16.8633C16.1607 16.9727 15.9693 17 15.7779 17Z" fill="black"/>
<path d="M12.0047 17C11.5399 17 11.1297 16.7539 10.911 16.3164L7.13774 8.76909C6.83697 8.1675 7.08305 7.42918 7.68459 7.12838C8.28612 6.82758 9.02436 7.07369 9.32513 7.67528L13.0984 15.2226C13.3992 15.8242 13.1531 16.5625 12.5515 16.8633C12.3875 16.9727 12.1961 17 12.0047 17Z" fill="black"/>
<path d="M15.7779 10.984L16.8443 8.82378C17.1451 8.24953 16.981 7.51121 16.4342 7.18306C15.8053 6.80023 15.0124 7.04634 14.6842 7.67528C14.5202 8.03076 14.5202 8.44094 14.6842 8.76909L15.7779 10.984Z" fill="black"/>
<path d="M8.23144 13.0076L7.13774 15.1679C6.86432 15.7148 7.00103 16.4258 7.52054 16.7812C7.73927 16.918 7.98536 17 8.23144 17C8.69626 17 9.1064 16.7539 9.32513 16.3164C9.48919 15.9609 9.48919 15.5507 9.32513 15.1952L8.23144 13.0076Z" fill="black"/>
</g>
<defs>
<clipPath id="clip0_857_2415">
<rect width="24" height="24" fill="white"/>
</clipPath>
</defs>
</svg>
