<svg width="24" height="24" viewBox="0 0 24 24" fill="none" xmlns="http://www.w3.org/2000/svg">
<g clip-path="url(#clip0_850_2218)">
<path fill-rule="evenodd" clip-rule="evenodd" d="M12 4C7.58172 4 4 7.58172 4 12C4 16.4183 7.58172 20 12 20C16.4183 20 20 16.4183 20 12C20 7.58172 16.4183 4 12 4ZM2 12C2 6.47715 6.47715 2 12 2C17.5228 2 22 6.47715 22 12C22 17.5228 17.5228 22 12 22C6.47715 22 2 17.5228 2 12Z" fill="black"/>
<path fill-rule="evenodd" clip-rule="evenodd" d="M12 8C10.8954 8 10 8.89543 10 10C10 11.1046 10.8954 12 12 12C13.1046 12 14 11.1046 14 10C14 8.89543 13.1046 8 12 8ZM8 10C8 7.79086 9.79086 6 12 6C14.2091 6 16 7.79086 16 10C16 12.2091 14.2091 14 12 14C9.79086 14 8 12.2091 8 10Z" fill="black"/>
<path fill-rule="evenodd" clip-rule="evenodd" d="M15.7931 17.5938C15.2751 17.208 14.6463 16.9998 14.0003 17H10C9.35489 16.9998 8.7266 17.2076 8.20889 17.5925C7.69118 17.9774 7.31134 18.5189 7.12571 19.1368C6.96679 19.6657 6.40918 19.9656 5.88025 19.8067C5.35132 19.6478 5.05138 19.0902 5.21029 18.5613C5.51968 17.5315 6.15275 16.629 7.0156 15.9875C7.87837 15.346 8.92491 14.9997 10 15H13.9997C15.0761 14.9997 16.1243 15.3468 16.9876 15.9897C17.8511 16.6327 18.484 17.5372 18.7922 18.5688C18.9502 19.0979 18.6494 19.6551 18.1203 19.8132C17.5911 19.9712 17.0339 19.6704 16.8758 19.1413C16.6909 18.5223 16.3112 17.9796 15.7931 17.5938Z" fill="black"/>
</g>
<defs>
<clipPath id="clip0_850_2218">
<rect width="24" height="24" fill="white"/>
</clipPath>
</defs>
</svg>
