<svg width="24" height="24" viewBox="0 0 24 24" fill="none" xmlns="http://www.w3.org/2000/svg">
<g clip-path="url(#clip0_854_2269)">
<path fill-rule="evenodd" clip-rule="evenodd" d="M4.06189 11H7C7.55228 11 8 11.4477 8 12C8 12.5523 7.55228 13 7 13H4.06189C4.51314 16.6187 7.38128 19.4869 11 19.9381V18C11 17.4477 11.4477 17 12 17C12.5523 17 13 17.4477 13 18V19.9381C16.6187 19.4869 19.4869 16.6187 19.9381 13H18C17.4477 13 17 12.5523 17 12C17 11.4477 17.4477 11 18 11H19.9381C19.4869 7.38128 16.6187 4.51314 13 4.06189V7C13 7.55228 12.5523 8 12 8C11.4477 8 11 7.55228 11 7V4.06189C7.38128 4.51314 4.51314 7.38128 4.06189 11ZM2 12C2 6.47715 6.47715 2 12 2C17.5228 2 22 6.47715 22 12C22 17.5228 17.5228 22 12 22C6.47715 22 2 17.5228 2 12ZM12 11C12.5523 11 13 11.4477 13 12V12.01C13 12.5623 12.5523 13.01 12 13.01C11.4477 13.01 11 12.5623 11 12.01V12C11 11.4477 11.4477 11 12 11Z" fill="black"/>
</g>
<defs>
<clipPath id="clip0_854_2269">
<rect width="24" height="24" fill="white"/>
</clipPath>
</defs>
</svg>
