<svg width="24" height="24" viewBox="0 0 24 24" fill="none" xmlns="http://www.w3.org/2000/svg">
<path d="M13 8.00006V13.0001C13 13.2653 12.8946 13.5196 12.7071 13.7072C12.5196 13.8947 12.2652 14.0001 12 14.0001C11.7348 14.0001 11.4804 13.8947 11.2929 13.7072C11.1054 13.5196 11 13.2653 11 13.0001V8.00006C11 7.73484 11.1054 7.48049 11.2929 7.29295C11.4804 7.10542 11.7348 7.00006 12 7.00006C12.2652 7.00006 12.5196 7.10542 12.7071 7.29295C12.8946 7.48049 13 7.73484 13 8.00006ZM11.29 15.2901C11.3834 15.1974 11.4943 15.1241 11.6161 15.0743C11.7379 15.0245 11.8684 14.9993 12 15.0001C11.8684 14.9993 11.7379 15.0245 11.6161 15.0743C11.4943 15.1241 11.3834 15.1974 11.29 15.2901ZM11 16.0001C10.9992 15.8685 11.0245 15.738 11.0742 15.6162C11.124 15.4943 11.1973 15.3835 11.29 15.2901C11.1973 15.3835 11.124 15.4943 11.0742 15.6162C11.0245 15.738 10.9992 15.8685 11 16.0001ZM12 15.0001C11.8022 15.0001 11.6089 15.0587 11.4444 15.1686C11.28 15.2785 11.1518 15.4347 11.0761 15.6174C11.0004 15.8001 10.9806 16.0012 11.0192 16.1952C11.0578 16.3891 11.153 16.5673 11.2929 16.7072C11.4328 16.847 11.6109 16.9423 11.8049 16.9808C11.9989 17.0194 12.2 16.9996 12.3827 16.9239C12.5654 16.8483 12.7216 16.7201 12.8315 16.5556C12.9414 16.3912 13 16.1978 13 16.0001C13 15.7348 12.8946 15.4805 12.7071 15.293C12.5196 15.1054 12.2652 15.0001 12 15.0001ZM22 12.0001C22 13.9779 21.4135 15.9113 20.3147 17.5558C19.2159 19.2003 17.6541 20.482 15.8268 21.2389C13.9996 21.9957 11.9889 22.1938 10.0491 21.8079C8.10929 21.4221 6.32746 20.4697 4.92894 19.0711C3.53041 17.6726 2.578 15.8908 2.19215 13.951C1.8063 12.0112 2.00433 10.0005 2.76121 8.17323C3.51809 6.34597 4.79981 4.78418 6.4443 3.68536C8.08879 2.58655 10.0222 2.00006 12 2.00006C13.3132 2.00006 14.6136 2.25872 15.8268 2.76127C17.0401 3.26381 18.1425 4.00041 19.0711 4.92899C19.9997 5.85758 20.7363 6.95997 21.2388 8.17323C21.7413 9.38648 22 10.6868 22 12.0001V12.0001ZM20 12.0001C20 10.4178 19.5308 8.87109 18.6518 7.5555C17.7727 6.23991 16.5233 5.21453 15.0615 4.60903C13.5997 4.00352 11.9911 3.8451 10.4393 4.15378C8.88743 4.46246 7.46197 5.22439 6.34315 6.34321C5.22433 7.46203 4.4624 8.88749 4.15372 10.4393C3.84504 11.9912 4.00347 13.5997 4.60897 15.0615C5.21447 16.5233 6.23985 17.7728 7.55544 18.6518C8.87104 19.5309 10.4178 20.0001 12 20.0001C14.1217 20.0001 16.1566 19.1572 17.6569 17.6569C19.1572 16.1566 20 14.1218 20 12.0001Z" fill="black"/>
</svg>
